<svg id="visual" viewBox="0 0 900 600" width="900" height="600" xmlns="http://www.w3.org/2000/svg" xmlns:xlink="http://www.w3.org/1999/xlink" version="1.1"><path d="M0 115L25 112C50 109 100 103 150 99C200 95 250 93 300 97C350 101 400 111 450 110C500 109 550 97 600 87C650 77 700 69 750 70C800 71 850 81 875 86L900 91L900 0L875 0C850 0 800 0 750 0C700 0 650 0 600 0C550 0 500 0 450 0C400 0 350 0 300 0C250 0 200 0 150 0C100 0 50 0 25 0L0 0Z" fill="#6198ff"></path><path d="M0 295L25 289C50 283 100 271 150 266C200 261 250 263 300 265C350 267 400 269 450 269C500 269 550 267 600 273C650 279 700 293 750 306C800 319 850 331 875 337L900 343L900 89L875 84C850 79 800 69 750 68C700 67 650 75 600 85C550 95 500 107 450 108C400 109 350 99 300 95C250 91 200 93 150 97C100 101 50 107 25 110L0 113Z" fill="#3c80ff"></path><path d="M0 349L25 340C50 331 100 313 150 308C200 303 250 311 300 320C350 329 400 339 450 347C500 355 550 361 600 371C650 381 700 395 750 397C800 399 850 389 875 384L900 379L900 341L875 335C850 329 800 317 750 304C700 291 650 277 600 271C550 265 500 267 450 267C400 267 350 265 300 263C250 261 200 259 150 264C100 269 50 281 25 287L0 293Z" fill="#0066ff"></path><path d="M0 421L25 409C50 397 100 373 150 368C200 363 250 377 300 399C350 421 400 451 450 467C500 483 550 485 600 486C650 487 700 487 750 481C800 475 850 463 875 457L900 451L900 377L875 382C850 387 800 397 750 395C700 393 650 379 600 369C550 359 500 353 450 345C400 337 350 327 300 318C250 309 200 301 150 306C100 311 50 329 25 338L0 347Z" fill="#0059dd"></path><path d="M0 601L25 601C50 601 100 601 150 601C200 601 250 601 300 601C350 601 400 601 450 601C500 601 550 601 600 601C650 601 700 601 750 601C800 601 850 601 875 601L900 601L900 449L875 455C850 461 800 473 750 479C700 485 650 485 600 484C550 483 500 481 450 465C400 449 350 419 300 397C250 375 200 361 150 366C100 371 50 395 25 407L0 419Z" fill="#004cbb"></path></svg>